<svg xmlns="http://www.w3.org/2000/svg" version="1.1" xmlns:xlink="http://www.w3.org/1999/xlink" width="1000" height="1000"><g clip-path="url(#SvgjsClipPath1025)"><rect width="1000" height="1000" fill="#ffffff"></rect><g transform="matrix(41.666666666666664,0,0,41.666666666666664,0,0)"><svg xmlns="http://www.w3.org/2000/svg" version="1.1" xmlns:xlink="http://www.w3.org/1999/xlink" width="24" height="24"><svg width="24" height="24" viewBox="0 0 24 24" fill="none" stroke="#146937" stroke-width="2" stroke-linecap="round" stroke-linejoin="round" class="lucide lucide-sprout-icon lucide-sprout" version="1.1" id="svg3" sodipodi:docname="sprout Kopie.svg" inkscape:version="1.4.2 (ebf0e940, 2025-05-08)" xmlns:inkscape="http://www.inkscape.org/namespaces/inkscape" xmlns:sodipodi="http://sodipodi.sourceforge.net/DTD/sodipodi-0.dtd" xmlns="http://www.w3.org/2000/svg" xmlns:svg="http://www.w3.org/2000/svg">
  <defs id="defs3"><clipPath id="SvgjsClipPath1025"><rect width="1000" height="1000" x="0" y="0" rx="350" ry="350"></rect></clipPath></defs>
  <sodipodi:namedview id="namedview3" pagecolor="#ffffff" bordercolor="#000000" borderopacity="0.25" inkscape:showpageshadow="2" inkscape:pageopacity="0.0" inkscape:pagecheckerboard="0" inkscape:deskcolor="#d1d1d1" showgrid="false" inkscape:zoom="19.207868" inkscape:cx="9.5013148" inkscape:cy="13.640244" inkscape:window-width="1504" inkscape:window-height="911" inkscape:window-x="4" inkscape:window-y="38" inkscape:window-maximized="1" inkscape:current-layer="svg3"></sodipodi:namedview>
  <g id="g3" transform="matrix(0.75,0,0,0.75,3,3)">
    <path d="M 14,9.536 V 7 a 4,4 0 0 1 4,-4 h 1.5 A 0.5,0.5 0 0 1 20,3.5 V 5 a 4,4 0 0 1 -4,4 4,4 0 0 0 -4,4 c 0,2 1,3 1,5 a 5,5 0 0 1 -1,3" id="path1"></path>
    <path d="M 4,9 A 5,5 0 0 1 12,13 5,5 0 0 1 4,9" id="path2"></path>
    <path d="M 5,21 H 19" id="path3"></path>
  </g>
</svg></svg></g></g></svg>